<?xml version="1.0" encoding="UTF-8"?>
<svg xmlns="http://www.w3.org/2000/svg" width="680" height="336" viewBox="0 0 680 336" role="img" aria-labelledby="activity-title activity-description">
<title id="activity-title">Self-hosted AI Gateway Activity</title>
<desc id="activity-description">Personal requests and tokens over the last 7, 30, and 90 completed UTC+8 days. Each chart is independently scaled. Updated 2026-10-03 17:16 UTC+8.</desc>
<style>text{font-family:-apple-system,BlinkMacSystemFont,"Segoe UI",sans-serif}.title{font-size:19px;font-weight:700}.badge{font-size:12px;font-weight:700}.metric-label{font-size:10px;font-weight:700}.metric{font-weight:700}.chart-label{font-size:10px;font-weight:650}.chart-peak,.footer,.empty{font-size:10px}</style>
<rect x="0.5" y="0.5" width="679" height="335" rx="8" fill="#0d1117" stroke="#30363d"/>
<text class="title" x="24" y="31" fill="#e6edf3">Self-hosted AI Gateway</text>
<text class="footer" x="654" y="30" text-anchor="end" fill="#8b949e">PERSONAL · UTC+8 DAYS</text>
<line x1="24" y1="45" x2="654" y2="45" stroke="#30363d"/>
<text class="badge" x="24" y="67" fill="#58a6ff">7D</text>
<text class="footer" x="214" y="67" text-anchor="end" fill="#8b949e">Sep 26 - Oct 02</text>
<text class="metric-label" x="24" y="94" fill="#8b949e">REQUESTS</text>
<text class="metric" font-size="25.0" x="24" y="120" fill="#e6edf3">1.26K</text>
<text class="metric-label" x="24" y="200" fill="#8b949e">TOKENS</text>
<text class="metric" font-size="25.0" x="24" y="226" fill="#e6edf3">139M</text>
<text class="chart-label" x="24" y="137" fill="#e6edf3">Requests / day</text>
<text class="chart-peak" x="214" y="137" text-anchor="end" fill="#8b949e">peak 856</text>
<line x1="24" y1="149.0" x2="214" y2="149.0" stroke="#30363d" stroke-opacity="0.7"/>
<line x1="24" y1="168.0" x2="214" y2="168.0" stroke="#30363d" stroke-opacity="0.7"/>
<line x1="24" y1="187.0" x2="214" y2="187.0" stroke="#30363d" stroke-opacity="0.7"/>
<polygon points="24.0,187.0 24.0,175.3 55.7,186.1 87.3,149.0 119.0,182.3 150.7,186.5 182.3,187.0 214.0,187.0 214.0,187.0" fill="#58a6ff" fill-opacity="0.12"/>
<polyline points="24.0,175.3 55.7,186.1 87.3,149.0 119.0,182.3 150.7,186.5 182.3,187.0 214.0,187.0" fill="none" stroke="#58a6ff" stroke-width="2.4" stroke-linecap="round" stroke-linejoin="round"/>
<circle cx="214.0" cy="187.0" r="3.2" fill="#0d1117" stroke="#58a6ff" stroke-width="2"/>
<text class="chart-label" x="24" y="243" fill="#e6edf3">Tokens / day</text>
<text class="chart-peak" x="214" y="243" text-anchor="end" fill="#8b949e">peak 110M</text>
<line x1="24" y1="255.0" x2="214" y2="255.0" stroke="#30363d" stroke-opacity="0.7"/>
<line x1="24" y1="274.0" x2="214" y2="274.0" stroke="#30363d" stroke-opacity="0.7"/>
<line x1="24" y1="293.0" x2="214" y2="293.0" stroke="#30363d" stroke-opacity="0.7"/>
<polygon points="24.0,293.0 24.0,287.5 55.7,292.6 87.3,255.0 119.0,289.4 150.7,292.7 182.3,293.0 214.0,293.0 214.0,293.0" fill="#bc8cff" fill-opacity="0.12"/>
<polyline points="24.0,287.5 55.7,292.6 87.3,255.0 119.0,289.4 150.7,292.7 182.3,293.0 214.0,293.0" fill="none" stroke="#bc8cff" stroke-width="2.4" stroke-linecap="round" stroke-linejoin="round"/>
<circle cx="214.0" cy="293.0" r="3.2" fill="#0d1117" stroke="#bc8cff" stroke-width="2"/>
<line x1="231" y1="58" x2="231" y2="291" stroke="#30363d"/>
<text class="badge" x="244" y="67" fill="#58a6ff">30D</text>
<text class="footer" x="434" y="67" text-anchor="end" fill="#8b949e">Sep 03 - Oct 02</text>
<text class="metric-label" x="244" y="94" fill="#8b949e">REQUESTS</text>
<text class="metric" font-size="25.0" x="244" y="120" fill="#e6edf3">18.6K</text>
<text class="metric-label" x="244" y="200" fill="#8b949e">TOKENS</text>
<text class="metric" font-size="25.0" x="244" y="226" fill="#e6edf3">2.25B</text>
<text class="chart-label" x="244" y="137" fill="#e6edf3">Requests / day</text>
<text class="chart-peak" x="434" y="137" text-anchor="end" fill="#8b949e">peak 2.79K</text>
<line x1="244" y1="149.0" x2="434" y2="149.0" stroke="#30363d" stroke-opacity="0.7"/>
<line x1="244" y1="168.0" x2="434" y2="168.0" stroke="#30363d" stroke-opacity="0.7"/>
<line x1="244" y1="187.0" x2="434" y2="187.0" stroke="#30363d" stroke-opacity="0.7"/>
<polygon points="244.0,187.0 244.0,170.1 250.6,161.2 257.1,174.9 263.7,187.0 270.2,168.2 276.8,149.0 283.3,175.0 289.9,171.5 296.4,161.1 303.0,159.2 309.5,180.6 316.1,186.7 322.6,184.6 329.2,186.4 335.7,185.8 342.3,184.7 348.8,180.5 355.4,186.6 361.9,181.3 368.5,176.9 375.0,185.6 381.6,181.5 388.1,186.3 394.7,183.4 401.2,186.7 407.8,175.4 414.3,185.6 420.9,186.9 427.4,187.0 434.0,187.0 434.0,187.0" fill="#58a6ff" fill-opacity="0.12"/>
<polyline points="244.0,170.1 250.6,161.2 257.1,174.9 263.7,187.0 270.2,168.2 276.8,149.0 283.3,175.0 289.9,171.5 296.4,161.1 303.0,159.2 309.5,180.6 316.1,186.7 322.6,184.6 329.2,186.4 335.7,185.8 342.3,184.7 348.8,180.5 355.4,186.6 361.9,181.3 368.5,176.9 375.0,185.6 381.6,181.5 388.1,186.3 394.7,183.4 401.2,186.7 407.8,175.4 414.3,185.6 420.9,186.9 427.4,187.0 434.0,187.0" fill="none" stroke="#58a6ff" stroke-width="2.4" stroke-linecap="round" stroke-linejoin="round"/>
<circle cx="434.0" cy="187.0" r="3.2" fill="#0d1117" stroke="#58a6ff" stroke-width="2"/>
<text class="chart-label" x="244" y="243" fill="#e6edf3">Tokens / day</text>
<text class="chart-peak" x="434" y="243" text-anchor="end" fill="#8b949e">peak 371M</text>
<line x1="244" y1="255.0" x2="434" y2="255.0" stroke="#30363d" stroke-opacity="0.7"/>
<line x1="244" y1="274.0" x2="434" y2="274.0" stroke="#30363d" stroke-opacity="0.7"/>
<line x1="244" y1="293.0" x2="434" y2="293.0" stroke="#30363d" stroke-opacity="0.7"/>
<polygon points="244.0,293.0 244.0,279.0 250.6,271.6 257.1,282.5 263.7,293.0 270.2,275.8 276.8,255.0 283.3,280.9 289.9,277.1 296.4,270.8 303.0,267.8 309.5,286.2 316.1,292.8 322.6,291.4 329.2,292.5 335.7,292.3 342.3,291.6 348.8,286.5 355.4,292.8 361.9,288.1 368.5,284.8 375.0,291.0 381.6,286.8 388.1,292.7 394.7,291.4 401.2,292.9 407.8,281.7 414.3,291.9 420.9,292.9 427.4,293.0 434.0,293.0 434.0,293.0" fill="#bc8cff" fill-opacity="0.12"/>
<polyline points="244.0,279.0 250.6,271.6 257.1,282.5 263.7,293.0 270.2,275.8 276.8,255.0 283.3,280.9 289.9,277.1 296.4,270.8 303.0,267.8 309.5,286.2 316.1,292.8 322.6,291.4 329.2,292.5 335.7,292.3 342.3,291.6 348.8,286.5 355.4,292.8 361.9,288.1 368.5,284.8 375.0,291.0 381.6,286.8 388.1,292.7 394.7,291.4 401.2,292.9 407.8,281.7 414.3,291.9 420.9,292.9 427.4,293.0 434.0,293.0" fill="none" stroke="#bc8cff" stroke-width="2.4" stroke-linecap="round" stroke-linejoin="round"/>
<circle cx="434.0" cy="293.0" r="3.2" fill="#0d1117" stroke="#bc8cff" stroke-width="2"/>
<line x1="451" y1="58" x2="451" y2="291" stroke="#30363d"/>
<text class="badge" x="464" y="67" fill="#58a6ff">90D</text>
<text class="footer" x="654" y="67" text-anchor="end" fill="#8b949e">Jul 05 - Oct 02</text>
<text class="metric-label" x="464" y="94" fill="#8b949e">REQUESTS</text>
<text class="metric" font-size="25.0" x="464" y="120" fill="#e6edf3">74.8K</text>
<text class="metric-label" x="464" y="200" fill="#8b949e">TOKENS</text>
<text class="metric" font-size="25.0" x="464" y="226" fill="#e6edf3">8.54B</text>
<text class="chart-label" x="464" y="137" fill="#e6edf3">Requests / day</text>
<text class="chart-peak" x="654" y="137" text-anchor="end" fill="#8b949e">peak 3.33K</text>
<line x1="464" y1="149.0" x2="654" y2="149.0" stroke="#30363d" stroke-opacity="0.7"/>
<line x1="464" y1="168.0" x2="654" y2="168.0" stroke="#30363d" stroke-opacity="0.7"/>
<line x1="464" y1="187.0" x2="654" y2="187.0" stroke="#30363d" stroke-opacity="0.7"/>
<polygon points="464.0,187.0 464.0,184.2 479.8,186.2 495.7,183.7 511.5,179.2 527.3,176.0 543.2,173.8 559.0,176.9 574.8,149.0 590.7,175.9 606.5,170.5 622.3,184.6 638.2,183.7 654.0,185.1 654.0,187.0" fill="#58a6ff" fill-opacity="0.12"/>
<polyline points="464.0,184.2 479.8,186.2 495.7,183.7 511.5,179.2 527.3,176.0 543.2,173.8 559.0,176.9 574.8,149.0 590.7,175.9 606.5,170.5 622.3,184.6 638.2,183.7 654.0,185.1" fill="none" stroke="#58a6ff" stroke-width="2.4" stroke-linecap="round" stroke-linejoin="round"/>
<circle cx="654.0" cy="185.1" r="3.2" fill="#0d1117" stroke="#58a6ff" stroke-width="2"/>
<text class="chart-label" x="464" y="243" fill="#e6edf3">Tokens / day</text>
<text class="chart-peak" x="654" y="243" text-anchor="end" fill="#8b949e">peak 401M</text>
<line x1="464" y1="255.0" x2="654" y2="255.0" stroke="#30363d" stroke-opacity="0.7"/>
<line x1="464" y1="274.0" x2="654" y2="274.0" stroke="#30363d" stroke-opacity="0.7"/>
<line x1="464" y1="293.0" x2="654" y2="293.0" stroke="#30363d" stroke-opacity="0.7"/>
<polygon points="464.0,293.0 464.0,290.7 479.8,292.3 495.7,289.8 511.5,286.5 527.3,283.7 543.2,281.3 559.0,284.5 574.8,255.0 590.7,281.9 606.5,275.7 622.3,290.7 638.2,289.9 654.0,291.1 654.0,293.0" fill="#bc8cff" fill-opacity="0.12"/>
<polyline points="464.0,290.7 479.8,292.3 495.7,289.8 511.5,286.5 527.3,283.7 543.2,281.3 559.0,284.5 574.8,255.0 590.7,281.9 606.5,275.7 622.3,290.7 638.2,289.9 654.0,291.1" fill="none" stroke="#bc8cff" stroke-width="2.4" stroke-linecap="round" stroke-linejoin="round"/>
<circle cx="654.0" cy="291.1" r="3.2" fill="#0d1117" stroke="#bc8cff" stroke-width="2"/>
<text class="footer" x="24" y="321" fill="#8b949e">powered by Sub2API · Updated 2026-10-03 17:16 UTC+8</text>
<text class="footer" x="654" y="321" text-anchor="end" fill="#8b949e">90D: weekly daily avg · separate scales</text>
</svg>
